<?xml version="1.0" encoding="utf-8"?>
<!-- Generator: Adobe Illustrator 26.0.1, SVG Export Plug-In . SVG Version: 6.00 Build 0)  -->
<svg version="1.1" id="Layer_1" xmlns="http://www.w3.org/2000/svg" xmlns:xlink="http://www.w3.org/1999/xlink" x="0px" y="0px"
	 viewBox="0 0 1000 511.95" style="enable-background:new 0 0 1000 511.95;" xml:space="preserve">
<style type="text/css">
	.st0{fill:#F8DE91;}
	.st1{fill:#061C43;}
	.st2{fill:#A99260;}
	.st3{fill:#0C346D;}
	.st4{fill:#929292;}
	.st5{fill:#1C6F97;}
	.st6{fill:#FFFFFF;}
	.st7{fill:none;stroke:#A99260;stroke-width:7.804;stroke-miterlimit:10;}
</style>
<g>
	<path class="st3" d="M90.74,409.6c-2.1-3.15-2.97-6.65-2.97-10.32c0-12.42,10.49-26.41,17.14-34.46c1.22-1.57,2.45-2.1,3.32-2.1
		c1.22,0,2.1,1.22,2.1,3.15c0,1.22-0.35,2.8-1.22,4.55c-2.45,4.9-3.85,9.1-3.85,12.42c0,6.3,5.25,9.8,19.24,10.32h1.57
		c26.24,0,55.1-21.16,55.1-48.98c0-18.19-12.24-39.18-44.95-59.12c-40.06-24.49-104.08-47.05-108.45-83.44
		c-0.35-2.97-0.52-6.12-0.52-9.1c0-64.19,75.56-143.26,135.39-143.26c12.94,0,25.36,3.67,35.86,12.24
		c13.12,10.49,16.09,29.39,16.09,48.45c0,16.79-2.27,33.93-2.27,45.13v3.32c-0.87,0.52-1.75,0.7-2.8,0.7
		c-6.3,0-15.74-8.57-15.74-15.39v-0.52c1.57-10.49,3.67-23.09,3.67-34.98c0-11.72-2.1-22.74-9.45-30.44
		c-5.25-5.42-12.24-7.87-20.47-7.87c-41.8,0-113,64.89-113,123.14c0,2.8,0.17,5.6,0.52,8.4c4.9,41.46,105.82,58.77,140.81,122.79
		c5.07,9.27,7.35,18.19,7.35,26.59c0,40.76-53,68.92-87.11,68.92C104.56,419.74,95.11,416.6,90.74,409.6z"/>
	<path class="st3" d="M256.73,370.42c-3.15-10.15-4.37-27.64-4.37-46.7c0-26.94,2.62-56.67,6.65-72.07
		c0.87-3.15,3.67-4.37,7.17-4.37c6.3,0,14.17,4.55,14.17,11.89c0,1.05,0,1.92-0.35,2.97c-4.55,16.44-7.7,48.28-7.7,70.14
		c0,13.64,1.22,23.26,4.02,23.26c2.45,0,5.95-7.17,11.02-25.36c13.12-46.88,26.59-113,45.13-124.72c2.62-1.57,5.07-2.45,7.35-2.45
		c9.27,0,14.52,12.59,17.14,21.69c3.85,13.82,4.72,30.26,7.87,45.65c4.9,23.26,9.27,50.7,13.47,50.7
		c12.24,0,24.31-87.26,46.88-90.93c0.87-0.17,1.75-0.17,2.62-0.17c15.39,0,10.09,61.87,17.26,79.54
		c3.67,9.27,9.27,16.62,14.17,17.49l1.4,0.17c7.86-1.49,65.85-76.49,65.85-76.49c1.22-2.1,2.08-0.25,3.65-0.25
		c1.75,0,3.15,1.22,3.15,3.15c0,0.7-0.17,1.57-0.87,2.62c-46.7,40.76-66.18,84.08-78.25,84.78h-1.22c-28.86,0-19.53-94.4-31.6-94.4
		c-1.75,0-3.85,1.4-6.3,4.37c-13.64,16.97-20.47,83.41-42.85,86.73l-2.62,0.17c-14.87,0-20.99-39.51-25.19-61.55
		c-4.55-24.49-6.3-50.55-12.07-50.55c-2.27,0-4.9,3.5-8.57,12.07c-16.44,37.96-28.51,108.45-39.71,132.41
		c-3.15,6.65-9.1,10.15-14.69,10.15C263.9,380.39,258.83,377.24,256.73,370.42z"/>
	<path class="st3" d="M543.42,345.23c-12.24-2.97-20.47-17.67-20.47-53.53c0-10.67,0.7-23.26,2.27-37.96c0.35-3.85,4.9-5.6,9.8-5.6
		c5.95,0,12.42,2.62,12.42,7.17v0.52c-2.27,16.09-3.15,29.39-3.15,39.88c0,23.96,5.25,33.93,14.17,33.93
		c16.44,0,44.95-33.93,74.51-76.79c1.22-1.75,2.62-2.45,3.85-2.45c1.75,0,2.97,1.22,2.97,3.15c0,1.05-0.35,2.27-1.22,3.5
		c-37.08,53.7-65.59,88.86-89.56,88.86C547.09,345.93,545.17,345.75,543.42,345.23z"/>
	<path class="st3" d="M642.6,361.32c-7-36.73-10.32-84.31-10.32-131.36c0-95.5,13.99-189.43,41.63-189.43c1.4,0,2.62,0.35,4.02,0.7
		c14.87,4.55,21.16,26.06,21.16,54.4c0,48.45-18.89,117.19-46.35,154.1c-0.17,3.15-0.35,9.27-0.35,17.32
		c0,34.98,3.67,106,28.69,122.62c0.7,0.52,1.05,1.05,1.05,1.75c0,0.87-0.7,1.75-2.27,2.27C679.85,393.68,648.02,390.01,642.6,361.32
		z M688.25,94.57V91.6c0-15.04-3.85-22.91-8.57-22.91c-2.97,0-6.3,2.97-9.45,9.1c-12.77,25.71-17.67,119.64-18.37,158.47
		C664.11,215.79,687.2,163.67,688.25,94.57z"/>
	<path class="st3" d="M752.27,322.49c-28.51-1.4-42.5-27.46-42.5-54.22c0-27.64,14.69-56.15,43.2-60l4.37-0.35
		c12.07,0,18.72,7.7,18.72,17.67c0,4.72-1.57,9.97-4.9,15.22c-5.77,8.92-20.12,19.07-39.88,27.81v2.8
		c0,26.41,14.69,37.78,33.23,37.78c9.1,0,19.07-2.8,28.69-7.87c22.74-12.07,37.08-30.79,54.22-49.15c1.22-1.4,2.45-1.92,3.67-1.92
		c1.57,0,2.8,1.4,2.8,3.15c0,1.22-0.35,2.45-1.57,3.85c-4.02,4.9-9.27,11.19-15.57,18.19c-34.46,37.78-60.17,47.23-80.64,47.23
		L752.27,322.49z M762.59,227.51c0-1.57-0.52-2.8-1.57-3.32c-0.87-0.52-2.1-0.7-3.5-0.7c-7.17,0-20.64,7.52-26.24,33.76
		C751.75,249.55,762.59,234.51,762.59,227.51z"/>
	<path class="st3" d="M851.97,383.36c0-3.67,1.05-7.87,3.15-12.42c7-14.69,22.39-28.51,34.63-39.71
		c-16.97-22.39-45.48-38.13-45.48-71.54v-1.75c0.7-25.19,33.41-57.53,55.45-57.53c8.75,0,24.34,4.17,26.33,24.75
		c0.17,1.05,0.35,2.27,0.35,3.32c0,3.85-1.22,7.52-2.97,7.52c-0.7,0-1.57-0.7-2.27-1.92c-1.92-2.97-5.45-12.4-17.06-12.16
		c-14.69,0.31-39.53,19.75-39.53,43.71c0,2.45,0.35,4.9,0.87,7.52c5.42,24.14,20.12,31.48,34.11,48.28
		c29.39-25.01,38.83-35.51,64.72-68.57c1.4-1.75,2.97-2.45,4.37-2.45c1.75,0,3.15,1.22,3.15,2.97c0,0.87-0.52,2.1-1.4,3.32
		c-24.31,31.14-38.83,47.23-65.94,71.19c5.95,9.1,8.57,18.37,8.57,26.94c0,21.16-15.57,38.48-35.33,43.03
		c-2.8,0.7-5.42,0.87-7.87,0.87C859.14,398.75,851.97,392.98,851.97,383.36z M898.68,350.48c0-4.02-1.22-8.4-4.02-12.77
		c-20.64,19.59-27.64,31.14-27.64,36.73c0,2.8,1.92,4.2,4.9,4.2C880.66,378.64,898.68,366.22,898.68,350.48z"/>
</g>
<g>
	<g>
		<path class="st2" d="M540.68,434.95h11.3c2.73,0,5.33,0.31,7.8,0.92c2.46,0.61,4.61,1.6,6.45,2.97c1.83,1.37,3.29,3.15,4.37,5.33
			c1.08,2.19,1.62,4.85,1.62,7.97c0,2.77-0.52,5.21-1.57,7.31c-1.05,2.11-2.45,3.88-4.23,5.31c-1.77,1.43-3.81,2.52-6.13,3.26
			c-2.32,0.74-4.75,1.11-7.29,1.11h-12.31V434.95z M548.21,462.18h3.91c1.74,0,3.36-0.18,4.85-0.53c1.5-0.35,2.79-0.94,3.89-1.76
			c1.09-0.82,1.95-1.9,2.58-3.24c0.63-1.34,0.94-2.97,0.94-4.9c0-1.67-0.31-3.13-0.94-4.37c-0.63-1.24-1.47-2.26-2.54-3.06
			c-1.06-0.8-2.31-1.41-3.74-1.81c-1.43-0.4-2.94-0.6-4.51-0.6h-4.44V462.18z"/>
		<path class="st2" d="M598.86,434.95h23.22v6.95h-15.69v6.37h14.82v6.95h-14.82v6.95h16.56v6.95h-24.09V434.95z"/>
		<path class="st2" d="M650.23,434.95h10.23L675,458.71h0.1v-23.76h7.53v34.18h-9.85l-14.92-24.33h-0.1v24.33h-7.53V434.95z"/>
		<path class="st2" d="M717.44,441.61h-9.75v-6.66h27.04v6.66h-9.75v27.52h-7.53V441.61z"/>
		<path class="st2" d="M759.68,434.95h7.53v34.18h-7.53V434.95z"/>
		<path class="st2" d="M812.22,443.3c-0.61-0.77-1.44-1.34-2.49-1.71c-1.05-0.37-2.04-0.56-2.97-0.56c-0.55,0-1.11,0.07-1.69,0.19
			c-0.58,0.13-1.13,0.33-1.64,0.6c-0.52,0.27-0.93,0.64-1.26,1.09c-0.32,0.45-0.48,1-0.48,1.64c0,1.03,0.39,1.82,1.16,2.37
			c0.77,0.55,1.74,1.01,2.92,1.4c1.17,0.39,2.44,0.77,3.79,1.16c1.35,0.39,2.61,0.93,3.79,1.64c1.17,0.71,2.15,1.66,2.92,2.85
			c0.77,1.19,1.16,2.78,1.16,4.78c0,1.9-0.35,3.56-1.06,4.97c-0.71,1.42-1.67,2.59-2.87,3.52c-1.21,0.93-2.61,1.63-4.2,2.08
			c-1.59,0.45-3.27,0.68-5.05,0.68c-2.22,0-4.28-0.34-6.18-1.01c-1.9-0.68-3.67-1.77-5.31-3.28l5.36-5.89
			c0.77,1.03,1.74,1.83,2.92,2.39s2.39,0.84,3.65,0.84c0.61,0,1.23-0.07,1.86-0.22c0.63-0.14,1.19-0.36,1.69-0.65
			c0.5-0.29,0.9-0.66,1.21-1.11c0.31-0.45,0.46-0.98,0.46-1.59c0-1.03-0.39-1.84-1.18-2.44c-0.79-0.59-1.78-1.1-2.97-1.52
			c-1.19-0.42-2.48-0.84-3.86-1.25c-1.38-0.42-2.67-0.98-3.86-1.69c-1.19-0.71-2.18-1.64-2.97-2.8c-0.79-1.16-1.18-2.69-1.18-4.59
			c0-1.83,0.36-3.44,1.09-4.83c0.73-1.38,1.69-2.54,2.9-3.48c1.21-0.93,2.6-1.63,4.18-2.1c1.58-0.47,3.2-0.7,4.88-0.7
			c1.93,0,3.8,0.27,5.6,0.82c1.8,0.55,3.43,1.46,4.88,2.75L812.22,443.3z"/>
		<path class="st2" d="M850.89,441.61h-9.75v-6.66h27.04v6.66h-9.75v27.52h-7.53V441.61z"/>
		<path class="st2" d="M893.24,434.95h13.23c1.74,0,3.39,0.17,4.95,0.51c1.56,0.34,2.93,0.9,4.1,1.69c1.18,0.79,2.11,1.85,2.8,3.19
			c0.69,1.34,1.04,3,1.04,5c0,2.41-0.63,4.47-1.88,6.16s-3.09,2.76-5.5,3.21l8.69,14.44h-9.03l-7.15-13.66h-3.72v13.66h-7.53V434.95
			z M900.77,449.1h4.44c0.68,0,1.39-0.02,2.15-0.07c0.76-0.05,1.44-0.19,2.05-0.43c0.61-0.24,1.12-0.62,1.52-1.13
			c0.4-0.51,0.6-1.24,0.6-2.17c0-0.87-0.18-1.56-0.53-2.08c-0.35-0.51-0.8-0.91-1.35-1.18c-0.55-0.27-1.18-0.46-1.88-0.56
			c-0.71-0.1-1.4-0.15-2.08-0.15h-4.93V449.1z"/>
		<path class="st2" d="M952.38,454.55l-12.84-19.6h9.37l7.24,12.79l7.68-12.79h8.93l-12.84,19.6v14.58h-7.53V454.55z"/>
	</g>
</g>
<g>
	<g>
		<path class="st2" d="M256.88,94.75h7.53v12.75h14.63V94.75h7.53v34.18h-7.53v-14.78h-14.63v14.78h-7.53V94.75z"/>
		<path class="st2" d="M315.06,94.75h23.22v6.95H322.6v6.37h14.82v6.95H322.6v6.95h16.56v6.95h-24.09V94.75z"/>
		<path class="st2" d="M377.69,94.75h6.23l14.87,34.18h-8.5l-2.94-7.24h-13.28l-2.85,7.24h-8.3L377.69,94.75z M380.58,104.7
			l-4.15,10.62h8.35L380.58,104.7z"/>
		<path class="st2" d="M423.75,94.75h7.53v27.23h13.95v6.95h-21.49V94.75z"/>
		<path class="st2" d="M472.8,101.41h-9.75v-6.66h27.04v6.66h-9.75v27.52h-7.53V101.41z"/>
		<path class="st2" d="M515.15,94.75h7.53v12.75h14.63V94.75h7.53v34.18h-7.53v-14.78h-14.63v14.78h-7.53V94.75z"/>
		<path class="st2" d="M581.44,114.35l-12.84-19.6h9.37l7.24,12.79l7.68-12.79h8.93l-12.84,19.6v14.58h-7.53V114.35z"/>
	</g>
</g>
<path class="st2" d="M557.51,190.38c-0.61-5.45-4.92-9.9-10.35-10.66c-2.22-0.31-4.34-0.02-6.22,0.72c-4.45,1.76-9.4,1.76-13.85,0
	c-1.89-0.75-4.01-1.03-6.22-0.72c-5.43,0.76-9.74,5.21-10.35,10.66c-0.47,4.19,2.59,5.84,4.04,10.52c0.48,3.53,3.33,27.5,9.17,27.5
	c5.64,0,1.63-19.08,10.28-19.08c8.65,0,4.64,19.08,10.28,19.08c5.84,0,9.27-18.56,9.17-27.5
	C553.74,196.76,557.98,194.57,557.51,190.38z"/>
</svg>
